<mxfile host="app.diagrams.net" agent="Mozilla/5.0 (Windows NT 10.0; Win64; x64) AppleWebKit/537.36 (KHTML, like Gecko) Chrome/131.0.0.0 Safari/537.36" version="25.0.3">
  <diagram name="Page-1" id="Ah-OwFhCd8Mk3FnU-RTh">
    <mxGraphModel dx="1858" dy="1726" grid="1" gridSize="10" guides="1" tooltips="1" connect="1" arrows="1" fold="1" page="1" pageScale="1" pageWidth="850" pageHeight="1100" math="0" shadow="0">
      <root>
        <mxCell id="0" />
        <mxCell id="1" parent="0" />
        <mxCell id="vd2gOB1dZQIPZLaLdQH1-1" value="AWS Account" style="points=[[0,0],[0.25,0],[0.5,0],[0.75,0],[1,0],[1,0.25],[1,0.5],[1,0.75],[1,1],[0.75,1],[0.5,1],[0.25,1],[0,1],[0,0.75],[0,0.5],[0,0.25]];outlineConnect=0;gradientColor=none;html=1;whiteSpace=wrap;fontSize=12;fontStyle=0;container=1;pointerEvents=0;collapsible=0;recursiveResize=0;shape=mxgraph.aws4.group;grIcon=mxgraph.aws4.group_account;strokeColor=#CD2264;fillColor=none;verticalAlign=top;align=left;spacingLeft=30;fontColor=#CD2264;dashed=0;" vertex="1" parent="1">
          <mxGeometry x="-130" y="40" width="810" height="640" as="geometry" />
        </mxCell>
        <mxCell id="vd2gOB1dZQIPZLaLdQH1-2" value="VPC" style="points=[[0,0],[0.25,0],[0.5,0],[0.75,0],[1,0],[1,0.25],[1,0.5],[1,0.75],[1,1],[0.75,1],[0.5,1],[0.25,1],[0,1],[0,0.75],[0,0.5],[0,0.25]];outlineConnect=0;gradientColor=none;html=1;whiteSpace=wrap;fontSize=12;fontStyle=0;container=1;pointerEvents=0;collapsible=0;recursiveResize=0;shape=mxgraph.aws4.group;grIcon=mxgraph.aws4.group_vpc2;strokeColor=#FF33FF;fillColor=none;verticalAlign=top;align=left;spacingLeft=30;fontColor=#AAB7B8;dashed=0;" vertex="1" parent="vd2gOB1dZQIPZLaLdQH1-1">
          <mxGeometry x="70" y="80" width="670" height="440" as="geometry" />
        </mxCell>
        <mxCell id="vd2gOB1dZQIPZLaLdQH1-4" value="&lt;font color=&quot;#ff00ff&quot;&gt;az-2&lt;/font&gt;" style="fillColor=none;strokeColor=#FF00FF;dashed=1;verticalAlign=top;fontStyle=0;fontColor=#147EBA;whiteSpace=wrap;html=1;" vertex="1" parent="vd2gOB1dZQIPZLaLdQH1-2">
          <mxGeometry x="75" y="250" width="565" height="130" as="geometry" />
        </mxCell>
        <mxCell id="vd2gOB1dZQIPZLaLdQH1-3" value="&lt;font color=&quot;#ff00ff&quot;&gt;az-1&lt;/font&gt;" style="fillColor=none;strokeColor=#FF66FF;dashed=1;verticalAlign=top;fontStyle=0;fontColor=#147EBA;whiteSpace=wrap;html=1;" vertex="1" parent="vd2gOB1dZQIPZLaLdQH1-2">
          <mxGeometry x="75" y="50" width="565" height="130" as="geometry" />
        </mxCell>
        <mxCell id="vd2gOB1dZQIPZLaLdQH1-5" value="public" style="points=[[0,0],[0.25,0],[0.5,0],[0.75,0],[1,0],[1,0.25],[1,0.5],[1,0.75],[1,1],[0.75,1],[0.5,1],[0.25,1],[0,1],[0,0.75],[0,0.5],[0,0.25]];outlineConnect=0;html=1;whiteSpace=wrap;fontSize=12;fontStyle=0;container=1;pointerEvents=0;collapsible=0;recursiveResize=0;shape=mxgraph.aws4.group;grIcon=mxgraph.aws4.group_security_group;grStroke=0;strokeColor=#6c8ebf;fillColor=#dae8fc;verticalAlign=top;align=left;spacingLeft=30;dashed=0;" vertex="1" parent="vd2gOB1dZQIPZLaLdQH1-2">
          <mxGeometry x="120" y="80" width="130" height="280" as="geometry" />
        </mxCell>
        <mxCell id="vd2gOB1dZQIPZLaLdQH1-26" value="" style="outlineConnect=0;dashed=0;verticalLabelPosition=bottom;verticalAlign=top;align=center;html=1;shape=mxgraph.aws3.application_load_balancer;fillColor=#F58536;gradientColor=none;" vertex="1" parent="vd2gOB1dZQIPZLaLdQH1-5">
          <mxGeometry x="40" y="24" width="50" height="42" as="geometry" />
        </mxCell>
        <mxCell id="vd2gOB1dZQIPZLaLdQH1-32" value="" style="sketch=0;points=[[0,0,0],[0.25,0,0],[0.5,0,0],[0.75,0,0],[1,0,0],[0,1,0],[0.25,1,0],[0.5,1,0],[0.75,1,0],[1,1,0],[0,0.25,0],[0,0.5,0],[0,0.75,0],[1,0.25,0],[1,0.5,0],[1,0.75,0]];outlineConnect=0;fontColor=#232F3E;fillColor=#ED7100;strokeColor=#ffffff;dashed=0;verticalLabelPosition=bottom;verticalAlign=top;align=center;html=1;fontSize=12;fontStyle=0;aspect=fixed;shape=mxgraph.aws4.resourceIcon;resIcon=mxgraph.aws4.ec2;" vertex="1" parent="vd2gOB1dZQIPZLaLdQH1-5">
          <mxGeometry x="30" y="100" width="60" height="60" as="geometry" />
        </mxCell>
        <mxCell id="vd2gOB1dZQIPZLaLdQH1-6" value="private" style="points=[[0,0],[0.25,0],[0.5,0],[0.75,0],[1,0],[1,0.25],[1,0.5],[1,0.75],[1,1],[0.75,1],[0.5,1],[0.25,1],[0,1],[0,0.75],[0,0.5],[0,0.25]];outlineConnect=0;html=1;whiteSpace=wrap;fontSize=12;fontStyle=0;container=1;pointerEvents=0;collapsible=0;recursiveResize=0;shape=mxgraph.aws4.group;grIcon=mxgraph.aws4.group_security_group;grStroke=0;strokeColor=#9673a6;fillColor=#e1d5e7;verticalAlign=top;align=left;spacingLeft=30;dashed=0;" vertex="1" parent="vd2gOB1dZQIPZLaLdQH1-2">
          <mxGeometry x="310" y="80" width="130" height="280" as="geometry" />
        </mxCell>
        <mxCell id="vd2gOB1dZQIPZLaLdQH1-13" value="&lt;span style=&quot;color: rgb(0, 102, 204);&quot;&gt;backend&lt;/span&gt;" style="text;html=1;align=center;verticalAlign=middle;resizable=0;points=[];autosize=1;strokeColor=none;fillColor=none;" vertex="1" parent="vd2gOB1dZQIPZLaLdQH1-6">
          <mxGeometry x="30" y="242" width="70" height="30" as="geometry" />
        </mxCell>
        <mxCell id="vd2gOB1dZQIPZLaLdQH1-21" value="&lt;font color=&quot;#0066cc&quot;&gt;frontend&lt;/font&gt;" style="text;html=1;align=center;verticalAlign=middle;resizable=0;points=[];autosize=1;strokeColor=none;fillColor=none;" vertex="1" parent="vd2gOB1dZQIPZLaLdQH1-6">
          <mxGeometry x="60" width="70" height="30" as="geometry" />
        </mxCell>
        <mxCell id="vd2gOB1dZQIPZLaLdQH1-22" value="" style="outlineConnect=0;dashed=0;verticalLabelPosition=bottom;verticalAlign=top;align=center;html=1;shape=mxgraph.aws3.application_load_balancer;fillColor=#F58536;gradientColor=none;" vertex="1" parent="vd2gOB1dZQIPZLaLdQH1-6">
          <mxGeometry x="40" y="110" width="50" height="52" as="geometry" />
        </mxCell>
        <mxCell id="vd2gOB1dZQIPZLaLdQH1-12" value="" style="sketch=0;points=[[0,0,0],[0.25,0,0],[0.5,0,0],[0.75,0,0],[1,0,0],[0,1,0],[0.25,1,0],[0.5,1,0],[0.75,1,0],[1,1,0],[0,0.25,0],[0,0.5,0],[0,0.75,0],[1,0.25,0],[1,0.5,0],[1,0.75,0]];outlineConnect=0;fontColor=#ffffff;fillColor=#1ba1e2;strokeColor=#006EAF;dashed=0;verticalLabelPosition=bottom;verticalAlign=top;align=center;html=1;fontSize=12;fontStyle=0;aspect=fixed;shape=mxgraph.aws4.resourceIcon;resIcon=mxgraph.aws4.auto_scaling2;" vertex="1" parent="vd2gOB1dZQIPZLaLdQH1-6">
          <mxGeometry x="39" y="198" width="52" height="52" as="geometry" />
        </mxCell>
        <mxCell id="vd2gOB1dZQIPZLaLdQH1-25" style="edgeStyle=orthogonalEdgeStyle;rounded=0;orthogonalLoop=1;jettySize=auto;html=1;entryX=0.5;entryY=0;entryDx=0;entryDy=0;entryPerimeter=0;flowAnimation=1;" edge="1" parent="vd2gOB1dZQIPZLaLdQH1-6" source="vd2gOB1dZQIPZLaLdQH1-22" target="vd2gOB1dZQIPZLaLdQH1-12">
          <mxGeometry relative="1" as="geometry" />
        </mxCell>
        <mxCell id="vd2gOB1dZQIPZLaLdQH1-8" value="DB" style="points=[[0,0],[0.25,0],[0.5,0],[0.75,0],[1,0],[1,0.25],[1,0.5],[1,0.75],[1,1],[0.75,1],[0.5,1],[0.25,1],[0,1],[0,0.75],[0,0.5],[0,0.25]];outlineConnect=0;html=1;whiteSpace=wrap;fontSize=12;fontStyle=0;container=1;pointerEvents=0;collapsible=0;recursiveResize=0;shape=mxgraph.aws4.group;grIcon=mxgraph.aws4.group_security_group;grStroke=0;strokeColor=#b85450;fillColor=#f8cecc;verticalAlign=top;align=left;spacingLeft=30;dashed=0;" vertex="1" parent="vd2gOB1dZQIPZLaLdQH1-2">
          <mxGeometry x="490" y="80" width="130" height="280" as="geometry" />
        </mxCell>
        <mxCell id="vd2gOB1dZQIPZLaLdQH1-11" style="edgeStyle=orthogonalEdgeStyle;rounded=0;orthogonalLoop=1;jettySize=auto;html=1;flowAnimation=1;" edge="1" parent="vd2gOB1dZQIPZLaLdQH1-8" source="vd2gOB1dZQIPZLaLdQH1-9" target="vd2gOB1dZQIPZLaLdQH1-10">
          <mxGeometry relative="1" as="geometry" />
        </mxCell>
        <mxCell id="vd2gOB1dZQIPZLaLdQH1-9" value="" style="outlineConnect=0;dashed=0;verticalLabelPosition=bottom;verticalAlign=top;align=center;html=1;shape=mxgraph.aws3.rds_db_instance;fillColor=#2E73B8;gradientColor=none;" vertex="1" parent="vd2gOB1dZQIPZLaLdQH1-8">
          <mxGeometry x="40.25" y="70" width="49.5" height="66" as="geometry" />
        </mxCell>
        <mxCell id="vd2gOB1dZQIPZLaLdQH1-10" value="" style="outlineConnect=0;dashed=0;verticalLabelPosition=bottom;verticalAlign=top;align=center;html=1;shape=mxgraph.aws3.rds_db_instance_read_replica;fillColor=#2E73B8;gradientColor=none;" vertex="1" parent="vd2gOB1dZQIPZLaLdQH1-8">
          <mxGeometry x="40.25" y="180" width="49.5" height="66" as="geometry" />
        </mxCell>
        <mxCell id="vd2gOB1dZQIPZLaLdQH1-19" style="edgeStyle=orthogonalEdgeStyle;rounded=0;orthogonalLoop=1;jettySize=auto;html=1;flowAnimation=1;" edge="1" parent="vd2gOB1dZQIPZLaLdQH1-2" source="vd2gOB1dZQIPZLaLdQH1-12" target="vd2gOB1dZQIPZLaLdQH1-9">
          <mxGeometry relative="1" as="geometry">
            <Array as="points">
              <mxPoint x="470" y="290" />
              <mxPoint x="470" y="130" />
              <mxPoint x="555" y="130" />
            </Array>
          </mxGeometry>
        </mxCell>
        <mxCell id="vd2gOB1dZQIPZLaLdQH1-20" value="" style="sketch=0;points=[[0,0,0],[0.25,0,0],[0.5,0,0],[0.75,0,0],[1,0,0],[0,1,0],[0.25,1,0],[0.5,1,0],[0.75,1,0],[1,1,0],[0,0.25,0],[0,0.5,0],[0,0.75,0],[1,0.25,0],[1,0.5,0],[1,0.75,0]];outlineConnect=0;fontColor=#ffffff;fillColor=#1ba1e2;strokeColor=#006EAF;dashed=0;verticalLabelPosition=bottom;verticalAlign=top;align=center;html=1;fontSize=12;fontStyle=0;aspect=fixed;shape=mxgraph.aws4.resourceIcon;resIcon=mxgraph.aws4.auto_scaling2;" vertex="1" parent="vd2gOB1dZQIPZLaLdQH1-2">
          <mxGeometry x="350" y="100" width="50" height="50" as="geometry" />
        </mxCell>
        <mxCell id="vd2gOB1dZQIPZLaLdQH1-24" style="edgeStyle=orthogonalEdgeStyle;rounded=0;orthogonalLoop=1;jettySize=auto;html=1;entryX=0.5;entryY=0;entryDx=0;entryDy=0;entryPerimeter=0;flowAnimation=1;" edge="1" parent="vd2gOB1dZQIPZLaLdQH1-2" source="vd2gOB1dZQIPZLaLdQH1-20" target="vd2gOB1dZQIPZLaLdQH1-22">
          <mxGeometry relative="1" as="geometry" />
        </mxCell>
        <mxCell id="vd2gOB1dZQIPZLaLdQH1-27" style="edgeStyle=orthogonalEdgeStyle;rounded=0;orthogonalLoop=1;jettySize=auto;html=1;entryX=0;entryY=0.5;entryDx=0;entryDy=0;entryPerimeter=0;flowAnimation=1;" edge="1" parent="vd2gOB1dZQIPZLaLdQH1-2" source="vd2gOB1dZQIPZLaLdQH1-26" target="vd2gOB1dZQIPZLaLdQH1-20">
          <mxGeometry relative="1" as="geometry" />
        </mxCell>
        <mxCell id="vd2gOB1dZQIPZLaLdQH1-28" value="" style="outlineConnect=0;dashed=0;verticalLabelPosition=bottom;verticalAlign=top;align=center;html=1;shape=mxgraph.aws3.cloudfront;fillColor=#F58536;gradientColor=none;" vertex="1" parent="vd2gOB1dZQIPZLaLdQH1-1">
          <mxGeometry x="10" y="175" width="50" height="60" as="geometry" />
        </mxCell>
        <mxCell id="vd2gOB1dZQIPZLaLdQH1-29" style="edgeStyle=orthogonalEdgeStyle;rounded=0;orthogonalLoop=1;jettySize=auto;html=1;entryX=0;entryY=0.5;entryDx=0;entryDy=0;entryPerimeter=0;strokeColor=#000033;flowAnimation=1;" edge="1" parent="vd2gOB1dZQIPZLaLdQH1-1" source="vd2gOB1dZQIPZLaLdQH1-28" target="vd2gOB1dZQIPZLaLdQH1-26">
          <mxGeometry relative="1" as="geometry" />
        </mxCell>
        <mxCell id="vd2gOB1dZQIPZLaLdQH1-35" value="" style="outlineConnect=0;dashed=0;verticalLabelPosition=bottom;verticalAlign=top;align=center;html=1;shape=mxgraph.aws3.route_53;fillColor=#F58536;gradientColor=none;" vertex="1" parent="vd2gOB1dZQIPZLaLdQH1-1">
          <mxGeometry x="20" y="80" width="30" height="45.5" as="geometry" />
        </mxCell>
        <mxCell id="vd2gOB1dZQIPZLaLdQH1-36" style="edgeStyle=orthogonalEdgeStyle;rounded=0;orthogonalLoop=1;jettySize=auto;html=1;entryX=0.5;entryY=0;entryDx=0;entryDy=0;entryPerimeter=0;flowAnimation=1;" edge="1" parent="vd2gOB1dZQIPZLaLdQH1-1" source="vd2gOB1dZQIPZLaLdQH1-35" target="vd2gOB1dZQIPZLaLdQH1-28">
          <mxGeometry relative="1" as="geometry" />
        </mxCell>
        <mxCell id="vd2gOB1dZQIPZLaLdQH1-37" value="" style="points=[[0.13,0.02,0],[0.5,0,0],[0.87,0.02,0],[0.885,0.4,0],[0.985,0.985,0],[0.5,1,0],[0.015,0.985,0],[0.115,0.4,0]];verticalLabelPosition=bottom;sketch=0;html=1;verticalAlign=top;aspect=fixed;align=center;pointerEvents=1;shape=mxgraph.cisco19.laptop;fillColor=#005073;strokeColor=none;" vertex="1" parent="1">
          <mxGeometry x="320.00000000000006" y="-132" width="78.57" height="55" as="geometry" />
        </mxCell>
        <mxCell id="vd2gOB1dZQIPZLaLdQH1-40" style="edgeStyle=orthogonalEdgeStyle;rounded=0;orthogonalLoop=1;jettySize=auto;html=1;entryX=0.5;entryY=0;entryDx=0;entryDy=0;entryPerimeter=0;flowAnimation=1;" edge="1" parent="1" target="vd2gOB1dZQIPZLaLdQH1-35">
          <mxGeometry relative="1" as="geometry">
            <mxPoint x="330" y="-110" as="sourcePoint" />
          </mxGeometry>
        </mxCell>
      </root>
    </mxGraphModel>
  </diagram>
</mxfile>
